<?xml version="1.0" standalone="no"?><!DOCTYPE svg PUBLIC "-//W3C//DTD SVG 1.1//EN" "http://www.w3.org/Graphics/SVG/1.1/DTD/svg11.dtd"><svg t="1748086356689" class="icon" viewBox="0 0 1047 1024" version="1.1" xmlns="http://www.w3.org/2000/svg" p-id="7173" xmlns:xlink="http://www.w3.org/1999/xlink" width="204.4921875" height="200"><path d="M58.54898 922.552364l18.30529-7.685427a610.083166 610.083166 0 0 1 417.109081-29.623827c78.670825 22.217871 159.158206 19.842375 239.785321 6.288076 94.460884-15.929794 169.778068-65.395997 237.549561-129.813848 24.313896-23.056281 50.304613-44.435741 75.596654-66.653612-1.257615-2.515231-2.515231-5.170196-3.633111-7.685427L0 793.297456l48.348322 130.233053c8.104632 0 9.222512 0 10.200658-0.83841z" fill="#1296db" p-id="7174"></path><path d="M938.181029 842.204719c-145.743642 97.814525-303.644232 115.560874-471.605745 73.919833A562.433518 562.433518 0 0 0 69.867518 958.464268 289.251524 289.251524 0 0 0 17.886085 992.419882 29.204622 29.204622 0 0 0 13.973504 1018.131129c1.257615 4.052316 14.951649 6.707282 22.357605 5.589401a111.788029 111.788029 0 0 0 27.947007-11.318538c128.835703-57.570835 260.885312-64.557586 398.105117-32.697998a695.880477 695.880477 0 0 0 182.773426 19.283435 455.256746 455.256746 0 0 0 295.260131-115.14167 433.17861 433.17861 0 0 0 36.890049-44.016536l-8.104632-10.480128a160.835026 160.835026 0 0 0-31.021178 12.855624zM876.557878 667.815394a492.566001 492.566001 0 0 0-9.501982-52.680108C804.873805 409.026108 680.369888 248.051347 507.797119 123.54743c-40.662895-29.204622-82.723141-51.282758-67.631757-111.788028a9.222512 9.222512 0 0 0-0.698675-6.288077c-8.384102-1.95629-23.475486-6.707282-24.453631-5.170196-27.947007 54.636399-86.635722 72.941689-126.879413 112.486704-8.104632 7.964897-17.187409 14.811914-25.850981 22.21787l3.772846 8.104632 149.656223-29.204622c-5.309931 38.84634-3.213906 72.662219-14.951649 100.748961A2376.334016 2376.334016 0 0 1 116.53902 718.818682c-6.986752 9.362247-12.855623 19.562905-19.1437 29.344358 1.537085 3.074171 3.213906 6.008607 4.890726 9.082777l774.271832-89.430423zM440.165362 140.036165a1143.591532 1143.591532 0 0 1 0 553.211006z" fill="#1296db" p-id="7175"></path></svg>